<svg xmlns="http://www.w3.org/2000/svg" viewBox="0 0 552.76 267.38"><defs><style>.cls-1,.cls-4{fill:#1d1d1b;}.cls-2{fill:none;}.cls-3{fill:#fff;}.cls-4{font-size:32.43px;font-family:Poppins-Regular, Poppins;}</style></defs><g id="Layer_2" data-name="Layer 2"><g id="Capa_1" data-name="Capa 1"><path class="cls-1" d="M223.58,33.27h-4.33a15.77,15.77,0,0,0-2.07-5.09l3.7-3.92a.86.86,0,0,0,0-1.14l-3.63-3.85a.73.73,0,0,0-1.07,0l-3.9,4.13a13.17,13.17,0,0,0-3.13-1.33V16.4a.78.78,0,0,0-.75-.8h-5.14a.78.78,0,0,0-.75.8V22a13.28,13.28,0,0,0-4.32,1.94l-3.34-3.54a.72.72,0,0,0-1.06,0l-3.64,3.85a.84.84,0,0,0,0,1.13L193.59,29a15.66,15.66,0,0,0-1.56,4.2h-5a.78.78,0,0,0-.76.8v5.45a.78.78,0,0,0,.76.8h5A15.66,15.66,0,0,0,194,45l-3.59,3.81a.82.82,0,0,0,0,1.13L194,53.82a.72.72,0,0,0,1.07,0l3.74-4a13.3,13.3,0,0,0,3.67,1.52v5.51a.78.78,0,0,0,.75.8h5.14a.78.78,0,0,0,.75-.8V51.27a13.14,13.14,0,0,0,3.8-1.75l3.6,3.82a.72.72,0,0,0,1.07,0l3.63-3.85a.82.82,0,0,0,0-1.13l-3.66-3.88a15.61,15.61,0,0,0,1.6-4.16h4.39a.78.78,0,0,0,.76-.8V34.07A.78.78,0,0,0,223.58,33.27Zm-18.34,12A8.06,8.06,0,0,1,197.42,37a7.84,7.84,0,1,1,15.65,0A8.07,8.07,0,0,1,205.24,45.24Z"/><rect class="cls-1" x="84.15" y="127.18" width="16.06" height="29.04"/><rect class="cls-1" x="63.17" y="258.21" width="139.88" height="9.17"/><path class="cls-1" d="M85.67,40.6h-10A35.72,35.72,0,0,0,71,28.9l8.5-9a2,2,0,0,0,0-2.61L71.11,8.43a1.67,1.67,0,0,0-2.46,0l-9,9.49a30.46,30.46,0,0,0-7.19-3.06v-13A1.8,1.8,0,0,0,50.77,0H39a1.8,1.8,0,0,0-1.74,1.84V14.61a30.84,30.84,0,0,0-9.92,4.45l-7.67-8.13a1.67,1.67,0,0,0-2.46,0L8.84,19.78a1.92,1.92,0,0,0,0,2.61l7.9,8.39a36.09,36.09,0,0,0-3.6,9.64H1.74A1.79,1.79,0,0,0,0,42.26V54.78a1.8,1.8,0,0,0,1.74,1.84H13.18a36,36,0,0,0,4.48,11L9.4,76.39A1.92,1.92,0,0,0,9.4,79l8.34,8.85a1.67,1.67,0,0,0,2.46,0l8.6-9.12a30.61,30.61,0,0,0,8.43,3.5V94.89A1.8,1.8,0,0,0,39,96.73h11.8a1.8,1.8,0,0,0,1.74-1.84V82a31,31,0,0,0,8.72-4l8.29,8.78a1.66,1.66,0,0,0,2.45,0l8.35-8.86a1.91,1.91,0,0,0,0-2.6l-8.41-8.93a36.33,36.33,0,0,0,3.68-9.55H85.67A1.8,1.8,0,0,0,87.4,55V42.44A1.8,1.8,0,0,0,85.67,40.6ZM43.52,68.13c-9.93,0-18-8.54-18-19.07S33.59,30,43.52,30s18,8.54,18,19.08S53.45,68.13,43.52,68.13Z"/><path class="cls-1" d="M187.3,52.52h-2.65a9.47,9.47,0,0,0-1.26-3.11l2.26-2.4a.51.51,0,0,0,0-.69L183.43,44a.44.44,0,0,0-.65,0l-2.38,2.52a7.84,7.84,0,0,0-1.91-.81V42.22a.48.48,0,0,0-.47-.49h-3.13a.47.47,0,0,0-.46.49v3.39a8.16,8.16,0,0,0-2.64,1.18l-2-2.16a.44.44,0,0,0-.65,0L166.88,47a.52.52,0,0,0,0,.7l2.1,2.23a9.47,9.47,0,0,0-1,2.56h-3a.48.48,0,0,0-.46.49v3.33a.48.48,0,0,0,.46.48h3a9.71,9.71,0,0,0,1.19,2.93L167,62a.51.51,0,0,0,0,.69l2.22,2.35a.44.44,0,0,0,.65,0l2.28-2.42a8.23,8.23,0,0,0,2.25.93v3.36a.47.47,0,0,0,.46.49H178a.48.48,0,0,0,.47-.49V63.52a8.52,8.52,0,0,0,2.31-1.07L183,64.78a.44.44,0,0,0,.65,0l2.22-2.35a.51.51,0,0,0,0-.69l-2.24-2.38a9.37,9.37,0,0,0,1-2.54h2.68a.48.48,0,0,0,.46-.49V53A.48.48,0,0,0,187.3,52.52Zm-11.2,7.31a5.07,5.07,0,1,1,4.78-5.07A4.93,4.93,0,0,1,176.1,59.83Z"/><path class="cls-2" d="M67,237.33H49.67a2.95,2.95,0,0,0,0,5.89H67a2.95,2.95,0,0,0,0-5.89Z"/><path class="cls-1" d="M51.11,100.15l1-2.45.57-.59,4.24-1.44H209.34a16.15,16.15,0,0,1,2.9.82,23.22,23.22,0,0,1,1.9,1.85l1,2.45v1.33l13.62,8.34V78.57s-.13-5.77-5.87-6.23H42s-4.47,1.49-4.47,5.7v32.3L51.11,102Z"/><path class="cls-1" d="M215.11,107.08c0,23.83.09,107.63.09,113.94,0,7.36-5.86,6.22-5.86,6.22H63.39C50.62,229.06,51,221,51,221L51.1,107l-13.61,8.34V244.06c0,5.8,5.87,6.23,5.87,6.23H220.78c9.08,0,7.95-6.23,7.95-6.23V115.42ZM67,243.22H49.67a2.95,2.95,0,0,1,0-5.89H67a2.95,2.95,0,0,1,0,5.89Z"/><path class="cls-1" d="M208.88,99.83l-2.78-.77-57.31.22-30.68,61.85h15L108.38,223.2h82.77l11.54-.35,4.56-1,2.49-1.22,1.87-2.87V103.85Zm-28.69,56.39H164.13v-29h16.06Z"/><rect class="cls-1" x="119.76" y="58.26" width="23.39" height="10.54"/><rect class="cls-1" x="128.66" y="5.09" width="5.64" height="53.18"/><rect class="cls-3" x="164.13" y="127.18" width="16.06" height="29.04"/><text class="cls-4" transform="translate(270.51 163) scale(1.01 1)">SIVAR TECHSTORE</text><rect class="cls-1" x="252.57" y="36.95" width="7.33" height="230.44"/></g></g></svg>